<?xml version="1.0" encoding="UTF-8"?><svg id="Layer_1" xmlns="http://www.w3.org/2000/svg" viewBox="0 0 32 32"><defs><style>.cls-1{fill:#fff;}</style></defs><circle cx="16" cy="16" r="16"/><g><path class="cls-1" d="M25.05,15.33c-.29-.24-.72-.2-.96,.08l-7.04,8.39c-.1,.12-.16,.28-.16,.44l-.02,3.62-.87,.7-.87-.71v-3.52c0-.16-.06-.31-.16-.44l-6.83-8.17c.83,0,1.93,0,3.11,0,.33,.83,.83,1.73,1.33,2.53,.59,.95,1.17,1.75,1.44,2.07h0l1.46,1.72c.13,.15,.32,.24,.51,.24h0c.2,0,.38-.08,.51-.23l3.37-3.83c.25-.28,.22-.71-.06-.96-.28-.25-.71-.22-.96,.06l-2.85,3.24-.95-1.1c-.26-.32-.74-.98-1.23-1.76-.39-.62-.79-1.31-1.09-1.96,1.16,0,2.3,0,3.26,0,.36,0,2.12-.02,2.34-.02,1,0,1.83-.34,2.4-.98,.72-.81,.98-2.04,.79-3.65-.14-1.19-.76-2.37-1.7-3.22-1.03-.94-2.39-1.46-3.83-1.46-1.7,0-3.1,.69-4.07,1.7-.83,.86-1.34,1.94-1.45,3-.14,1.35,.07,2.48,.29,3.27-2.22,0-4.06-.01-4.09-.01h0c-.26,0-.5,.15-.62,.39-.11,.24-.08,.52,.09,.73l7.61,9.1v3.6c0,.21,.09,.4,.25,.53l1.56,1.26c.12,.1,.28,.15,.43,.15s.3-.05,.43-.15l1.55-1.26c.16-.13,.25-.32,.25-.53l.02-3.69,6.89-8.21c.24-.29,.2-.72-.08-.96Zm-13.21-4.08c.09-.87,.5-1.61,1.07-2.18,.83-.83,2.01-1.3,3.1-1.3,1.41,0,2.36,.6,2.91,1.1,.7,.64,1.16,1.51,1.27,2.38,.14,1.19-.02,2.08-.46,2.58-.31,.35-.77,.52-1.38,.52-.23,0-1.98,.02-2.34,.02-1.11,0-2.47,0-3.8,0-.22-.66-.5-1.78-.36-3.13Z"/><path class="cls-1" d="M6.7,12.67h1.25c.38,0,.68-.31,.68-.68s-.31-.68-.68-.68h-1.25c-.38,0-.68,.31-.68,.68s.31,.68,.68,.68Z"/><path class="cls-1" d="M25.32,11.3h-1.25c-.38,0-.68,.31-.68,.68s.31,.68,.68,.68h1.25c.38,0,.68-.31,.68-.68s-.31-.68-.68-.68Z"/><path class="cls-1" d="M15.97,4.49c.38,0,.68-.31,.68-.68v-1.25c0-.38-.31-.68-.68-.68s-.68,.31-.68,.68v1.25c0,.38,.31,.68,.68,.68Z"/><path class="cls-1" d="M22.07,7c.17,0,.35-.07,.48-.2l.88-.88c.27-.27,.27-.7,0-.96s-.7-.27-.96,0l-.88,.88c-.27,.27-.27,.7,0,.96,.13,.13,.31,.2,.48,.2Z"/><path class="cls-1" d="M9.57,6.8c.13,.13,.31,.2,.48,.2s.35-.07,.48-.2c.27-.27,.27-.7,0-.96l-.88-.88c-.27-.27-.7-.27-.96,0s-.27,.7,0,.96l.88,.88Z"/></g></svg>